<svg xmlns="http://www.w3.org/2000/svg" xmlns:xlink="http://www.w3.org/1999/xlink" width="500" zoomAndPan="magnify" viewBox="0 0 375 374.999991" height="500" preserveAspectRatio="xMidYMid meet" version="1.0"><defs><g/><clipPath id="df1715c5e1"><path d="M 7 63 L 307 63 L 307 363 L 7 363 Z M 7 63 " clip-rule="nonzero"/></clipPath><clipPath id="62e4d2ee09"><path d="M 7.78125 158.589844 L 211.789062 63.5 L 306.878906 267.503906 L 102.871094 362.59375 Z M 7.78125 158.589844 " clip-rule="nonzero"/></clipPath><clipPath id="bdce6248d5"><path d="M 7.558594 158.507812 L 212.054688 63.1875 L 307.375 267.6875 L 102.875 363.003906 Z M 7.558594 158.507812 " clip-rule="nonzero"/></clipPath><clipPath id="02bb85ec3f"><path d="M 6.445312 158.101562 L 212.460938 62.074219 L 308.488281 268.09375 L 102.472656 364.117188 Z M 6.445312 158.101562 " clip-rule="nonzero"/></clipPath><clipPath id="68b603c4aa"><path d="M 6 62 L 309 62 L 309 364 L 6 364 Z M 6 62 " clip-rule="nonzero"/></clipPath><clipPath id="857ec45f31"><path d="M 6.445312 158.101562 L 212.460938 62.074219 L 308.488281 268.09375 L 102.472656 364.117188 Z M 6.445312 158.101562 " clip-rule="nonzero"/></clipPath><clipPath id="54b8733632"><path d="M 6.445312 158.101562 L 212.269531 62.164062 L 308.210938 267.992188 L 102.382812 363.929688 Z M 6.445312 158.101562 " clip-rule="nonzero"/></clipPath></defs><g clip-path="url(#df1715c5e1)"><g clip-path="url(#62e4d2ee09)"><g clip-path="url(#bdce6248d5)"><g clip-path="url(#02bb85ec3f)"><path fill="#000000" d="M 209.347656 63.382812 L 9.214844 156.667969 C 7.589844 157.425781 6.886719 159.359375 7.644531 160.980469 L 100.925781 361.113281 C 101.683594 362.738281 103.617188 363.441406 105.242188 362.683594 L 305.375 269.402344 C 306.996094 268.644531 307.703125 266.710938 306.945312 265.085938 L 213.660156 64.957031 C 212.902344 63.332031 210.972656 62.628906 209.347656 63.382812 Z M 299.6875 264.886719 L 105.441406 355.425781 L 14.902344 161.179688 L 209.148438 70.640625 Z M 299.6875 264.886719 " fill-opacity="1" fill-rule="nonzero"/></g></g></g></g><g clip-path="url(#68b603c4aa)"><g clip-path="url(#857ec45f31)"><g clip-path="url(#54b8733632)"><path stroke-linecap="butt" transform="matrix(0.76021, -0.354342, 0.354342, 0.76021, 6.444257, 158.101499)" fill="none" stroke-linejoin="miter" d="M 0.00110897 0.000600143 L -0.0000452336 270.751642 L 270.750996 270.752796 L 270.747929 -0.000213235 L 0.00110897 0.000600143 " stroke="#000000" stroke-width="25.037678" stroke-opacity="1" stroke-miterlimit="4"/></g></g></g><g fill="#000000" fill-opacity="1"><g transform="translate(199.399716, 365.585415)"><g><path d="M 83.65625 -39.09375 L 101.234375 -47.296875 L 45.140625 -236.09375 L 41.109375 -248.65625 L 43.40625 -249.734375 L 131.40625 -61.40625 L 169.59375 -79.25 L 38.40625 -360.015625 L -12.015625 -336.453125 L 23.515625 -196.6875 L 28.5625 -180.90625 L 27.8125 -180.546875 L 18.921875 -194.546875 L -65.484375 -311.46875 L -115.90625 -287.90625 L 15.28125 -7.140625 L 53.484375 -24.984375 L -34.515625 -213.3125 L -32.21875 -214.390625 L -25.15625 -203.265625 Z M 83.65625 -39.09375 "/></g></g></g><g fill="#000000" fill-opacity="1"><g transform="translate(103.227038, 346.686629)"><g><path d="M 19.984375 -103.890625 L 56.25 -26.28125 L 82.4375 -38.515625 L -0.84375 -216.75 L -27.03125 -204.515625 L 7.421875 -130.796875 L -12.9375 -121.28125 L -47.390625 -195 L -73.578125 -182.765625 L 9.703125 -4.53125 L 35.890625 -16.765625 L -0.375 -94.375 Z M 19.984375 -103.890625 "/></g></g></g><path stroke-linecap="butt" transform="matrix(0.759215, -0.356469, 0.356469, 0.759215, 229.154461, 289.733887)" fill="none" stroke-linejoin="miter" d="M -0.00106776 8.499874 L 97.016579 8.497057 " stroke="#ffffff" stroke-width="17" stroke-opacity="1" stroke-miterlimit="4"/><path stroke-linecap="butt" transform="matrix(0.762186, -0.350072, 0.350072, 0.762186, 74.395348, 245.780257)" fill="none" stroke-linejoin="miter" d="M 14.998418 2.000765 L 65.280026 2.001572 " stroke="#ffffff" stroke-width="4" stroke-opacity="1" stroke-miterlimit="4"/><path stroke-linecap="round" transform="matrix(0.762186, -0.350072, 0.350072, 0.762186, 74.395348, 245.780257)" fill="none" stroke-linejoin="round" d="M 2.000166 -4.00008 L 13.997505 -3.999145 L 14.000803 8.000138 L 1.999231 7.99726 Z M 2.000166 -4.00008 " stroke="#ffffff" stroke-width="4" stroke-opacity="1" stroke-miterlimit="4"/><path stroke-linecap="round" transform="matrix(0.762186, -0.350072, 0.350072, 0.762186, 74.395348, 245.780257)" fill="none" stroke-linejoin="round" d="M 78.281156 -3.999155 L 66.283817 -4.00009 L 66.280938 8.001482 L 78.284454 8.000129 Z M 78.281156 -3.999155 " stroke="#ffffff" stroke-width="4" stroke-opacity="1" stroke-miterlimit="4"/></svg>